<svg width="211.87211464472097" height="209.21875" viewBox="0 0 200 197.49531489864034" class="css-1j8o68f"><defs id="SvgjsDefs1011"></defs><g id="SvgjsG1012" featurekey="nameFeature-0" transform="matrix(5.379069983374056,0,0,5.379069983374056,-5.506396191986819,-59.273260034175266)" fill="#ffffff"><path d="M5.924 39.963594 l0.0037109 0.0011719 c-0.22922 0 -0.45844 -0.070392 -0.70204 -0.21117 l-3.5008 -2.0236 c-0.4868 -0.2816 -0.7012 -0.6532 -0.7012 -1.2156 l0 -8.5368 c0 -0.5624 0.21442 -0.934 0.7012 -1.2156 l7.0664 -4.0844 l0 -8.17 c0 -0.5624 0.21442 -0.934 0.7012 -1.2156 l3.6772 -2.1256 c0.15359 -0.092384 0.3332 -0.14559 0.5252 -0.14559 c0.5632 0 1.02 0.4568 1.02 1.02 c0 0.38398 -0.21238 0.7184 -0.52596 0.8924 l-3.358 1.9408 l0 8.17 c0 0.5624 -0.21442 0.934 -0.7012 1.2156 l-7.0664 4.0844 l0 7.8028 l2.864 1.6556 l6.7476 -3.9004 l0 -2.1336 l-6.2416 3.6064 c-0.15559 0.089608 -0.33238 0.13723 -0.512 0.13723 c-0.6728 0 -1.0208 -0.5924 -1.0208 -1.0252 l0.0048048 -4.2644 c0.00078124 -0.5624 0.21438 -0.934 0.70116 -1.2156 l3.6772 -2.1256 c0.15359 -0.092384 0.3332 -0.14559 0.5252 -0.14559 c0.5632 0 1.02 0.4568 1.02 1.02 c0 0.38398 -0.21238 0.7184 -0.52596 0.8924 l-3.358 1.9408 l0 2.1336 l6.2324 -3.6044 c0.15559 -0.089608 0.33238 -0.13723 0.512 -0.13723 c0.5504 0 1.0184 0.452 1.0184 1.0196 l0.004414 4.268 c0.00039062 0.5624 -0.2148 0.934 -0.7016 1.2116 l-7.3844 4.2724 c-0.24359 0.14078 -0.4728 0.21117 -0.70204 0.21117 z M13.695 40.0011719 c-0.5632 0 -1.0188 -0.4576 -1.0188 -1.0208 c0 -0.38398 0.21238 -0.7184 0.52596 -0.8924 l3.358 -1.9408 l0 -20.094 l-1.844 1.066 l0 8.3916 c0 0.5632 -0.4568 1.02 -1.02 1.02 s-1.02 -0.4568 -1.02 -1.02 l0 -8.7584 c0 -0.5624 0.21442 -0.934 0.7012 -1.2156 l3.6868 -2.1332 c0.15559 -0.089608 0.33238 -0.13723 0.512 -0.13723 c0.5504 0 1.0184 0.452 1.0184 1.0196 l0.004414 22.228 c0 0.5624 -0.21442 0.934 -0.7016 1.2156 l-3.6772 2.1256 c-0.15359 0.092384 -0.3332 0.14559 -0.5252 0.14559 z M25.0348 12.931999999999999 c-0.31359 -0.17398 -0.52596 -0.5088 -0.52596 -0.89276 c0 -0.5632 0.4568 -1.02 1.02 -1.02 c0.19199 0 0.3716 0.053204 0.5252 0.14559 l3.6772 2.1256 c0.4872 0.2816 0.7016 0.6532 0.7016 1.2156 l0 8.7584 c0 0.5632 -0.4568 1.02 -1.02 1.02 s-1.02 -0.4568 -1.02 -1.02 l0 -8.3916 z M26.0228 38.0868 c0.31359 0.17398 0.5276 0.5096 0.5276 0.8936 c0 0.5632 -0.4568 1.02 -1.02 1.02 c-0.19199 0 -0.3716 -0.053204 -0.5252 -0.14559 l-3.6772 -2.1256 c-0.4868 -0.2816 -0.7012 -0.6532 -0.7012 -1.2156 l-0.0048048 -22.232 c0 -0.5504 0.4512 -1.0152 1.0192 -1.0152 c0.1732 0 0.3484 0.043984 0.50916 0.1368 l3.6972 2.1332 c0.4868 0.2816 0.7012 0.6532 0.7012 1.2156 l0 8.7584 c0 0.5632 -0.4568 1.02 -1.02 1.02 s-1.02 -0.4568 -1.02 -1.02 l0 -8.3916 l-1.844 -1.066 l0 20.094 z M38.202 27.534 l0.0024219 0.00089844 c0 0.5624 -0.21442 0.934 -0.7012 1.2156 l-2.1644 1.2508 l2.1644 1.2512 c0.4872 0.2816 0.7016 0.6532 0.7016 1.2156 l0 4.2684 c0 0.5632 -0.4568 1.02 -1.02 1.02 s-1.02 -0.4568 -1.02 -1.02 l0 -3.9016 l-3.3784 -1.9492 c-0.4048 -0.23359 -0.5112 -0.6608 -0.51044 -0.8884 c0.0016016 -0.36359 0.1948 -0.6964 0.5096 -0.878 l3.3796 -1.9516 l0 -5.558 l-1.844 -1.066 l0 4.7456 c0 0.5624 -0.21442 0.934 -0.7016 1.2156 l-7.0664 4.0844 l0 3.9016 c0 0.5632 -0.4568 1.02 -1.02 1.02 s-1.02 -0.4568 -1.02 -1.02 l0 -4.2684 c0 -0.5624 0.21442 -0.934 0.7012 -1.2156 l7.0664 -4.0844 l-0.0048048 -6.1504 c0 -0.5504 0.4568 -1.0152 1.0188 -1.0152 c0.1732 0 0.3484 0.043984 0.5088 0.1368 l3.6972 2.1332 c0.4868 0.2816 0.7012 0.6532 0.7012 1.2156 l0 6.2916 z M33.619 33.4976 c0.4868 0.2816 0.702 0.6528 0.702 1.2152 l0 4.2684 c0 0.5632 -0.4568 1.02 -1.02 1.02 s-1.02 -0.4568 -1.02 -1.02 l0 -3.9016 l-3.358 -1.9408 c-0.31359 -0.17398 -0.52596 -0.5084 -0.52596 -0.8924 c0 -0.5632 0.4568 -1.02 1.02 -1.02 c0.19199 0 0.3716 0.053204 0.5248 0.14559 z"></path></g><g id="SvgjsG1013" featurekey="sloganFeature-0" transform="matrix(2.60690763048215,0,0,2.60690763048215,15.64854930884352,143.57143195435594)" fill="#ffffff"><path d="M4.017 19.59116 l-2.3478 0.000019531 l0 -2.375 l2.3477 0 l0 2.375 z M21.852999999999998 10.8272 c0.95568 0.96942 1.4718 2.2114 1.4534 3.497 c-0.02289 1.5915 -0.78998 3.0436 -2.16 4.0892 c-1.4271 1.089 -3.4354 1.6646 -5.8082 1.6646 c-4.5288 0 -6.808 -0.0667 -6.8304 -0.067344 l-1.1387 -0.03414 l0 -11.373 l7.9691 0 c3.5728 0 5.5148 1.2092 6.5148 2.2236 z M15.3384 17.7304 c3.8486 0 5.5962 -1.7276 5.6208 -3.4396 c0.009414 -0.66168 -0.25962 -1.2893 -0.77796 -1.8153 c-0.9689 -0.9829 -2.6888 -1.5241 -4.843 -1.5241 l-5.6214 0 l0 6.737 c1.09 0.018965 2.963 0.041992 5.6214 0.041992 z M42.607 10.9512 l-13.59 0.000019531 l0 2.1863 l9.0642 0.03375 l-0.0086328 2.3478 l-9.0556 -0.03375 l0 2.1782 l13.59 0 l0 2.3477 l-15.938 0 l0 -11.407 l15.938 0 l0 2.3476 z M60.139 8.662 l2.9056 0 l-9.017 12.023 l-9.018 -12.023 l2.9058 0 l6.1122 8.1492 z"></path></g></svg>