<svg width="203" height="190" viewBox="0 0 203 190" fill="none" xmlns="http://www.w3.org/2000/svg">
<g clip-path="url(#clip0_10_2)">
<path d="M26.7546 159.021L26.7749 159.028C25.5234 159.028 24.2719 158.641 22.9419 157.868L3.82838 146.75C1.17057 145.203 0 143.161 0 140.071V93.1698C0 90.08 1.17068 88.0384 3.82838 86.4913L42.4092 64.0514V19.1652C42.4092 16.0753 43.5799 14.0337 46.2376 12.4866L66.3142 0.808479C67.1528 0.300918 68.1334 0.0086033 69.1817 0.0086033C72.2566 0.0086033 74.7506 2.51828 74.7506 5.61252C74.7506 7.72212 73.5911 9.55943 71.879 10.5154L53.5451 21.1782V66.0645C53.5451 69.1544 52.3745 71.1959 49.7168 72.7431L11.1359 95.1829V138.052L26.7727 147.148L63.6129 125.719V113.997L29.5353 133.81C28.6858 134.303 27.7206 134.564 26.7399 134.564C23.0666 134.564 21.1666 131.31 21.1666 128.932L21.1928 105.503C21.1971 102.413 22.3633 100.372 25.021 98.8245L45.0976 87.1464C45.9362 86.6388 46.9168 86.3465 47.9651 86.3465C51.04 86.3465 53.534 88.8562 53.534 91.9504C53.534 94.06 52.3745 95.8974 50.6624 96.8533L32.3286 107.516V119.238L66.3559 99.4355C67.2054 98.9432 68.1706 98.6816 69.1513 98.6816C72.1564 98.6816 74.7115 101.165 74.7115 104.283L74.7356 127.732C74.7378 130.822 73.5629 132.863 70.9051 134.388L30.5881 157.861C29.2581 158.635 28.0067 159.021 26.7551 159.021L26.7546 159.021ZM69.1824 159.228C66.1074 159.228 63.62 156.714 63.62 153.62C63.62 151.51 64.7795 149.673 66.4916 148.717L84.8254 138.054V27.6566L74.7576 33.5132V79.617C74.7576 82.7113 72.2636 85.2209 69.1887 85.2209C66.1138 85.2209 63.6197 82.7113 63.6197 79.617V31.498C63.6197 28.4082 64.7904 26.3666 67.4481 24.8195L87.5772 13.0996C88.4266 12.6073 89.3919 12.3457 90.3726 12.3457C93.3776 12.3457 95.9328 14.829 95.9328 17.9474L95.9569 140.069C95.9569 143.159 94.7862 145.2 92.1263 146.747L72.0497 158.426C71.2111 158.933 70.2305 159.225 69.1822 159.225L69.1824 159.228ZM131.095 10.5088C129.383 9.55292 128.223 7.71341 128.223 5.60392C128.223 2.50967 130.717 0 133.792 0C134.84 0 135.821 0.292304 136.66 0.799876L156.736 12.478C159.396 14.0251 160.567 16.0667 160.567 19.1566V67.2755C160.567 70.3698 158.073 72.8794 154.998 72.8794C151.923 72.8794 149.429 70.3698 149.429 67.2755V21.1718L131.095 10.5088ZM136.489 148.71C138.201 149.666 139.37 151.51 139.37 153.62C139.37 156.714 136.876 159.224 133.801 159.224C132.753 159.224 131.772 158.931 130.933 158.424L110.857 146.746C108.199 145.198 107.028 143.157 107.028 140.067L107.002 17.9236C107.002 14.8997 109.466 12.346 112.567 12.346C113.512 12.346 114.469 12.5877 115.347 13.0976L135.532 24.8175C138.19 26.3646 139.361 28.4062 139.361 31.4961V79.615C139.361 82.7093 136.867 85.219 133.792 85.219C130.717 85.219 128.223 82.7093 128.223 79.615V33.5113L118.155 27.6546V138.052L136.489 148.71ZM202.985 90.7327L202.998 90.7377C202.998 93.8275 201.827 95.8691 199.169 97.4162L187.352 104.288L199.169 111.162C201.829 112.709 203 114.751 203 117.841V141.292C203 144.386 200.506 146.896 197.431 146.896C194.356 146.896 191.862 144.386 191.862 141.292V119.856L173.417 109.147C171.207 107.864 170.626 105.517 170.63 104.266C170.639 102.269 171.694 100.44 173.412 99.4424L191.864 88.7202V58.1844L181.796 52.3277V78.4002C181.796 81.4901 180.626 83.5317 177.966 85.0788L139.385 107.519V128.954C139.385 132.048 136.891 134.558 133.816 134.558C130.741 134.558 128.247 132.048 128.247 128.954V105.503C128.247 102.414 129.418 100.372 132.075 98.8249L170.656 76.385L170.63 42.5945C170.63 39.5706 173.124 37.0169 176.192 37.0169C177.138 37.0169 178.095 37.2586 178.97 37.7685L199.156 49.4884C201.814 51.0355 202.984 53.0771 202.984 56.167V90.7333L202.985 90.7327ZM177.963 123.497C180.62 125.044 181.795 127.083 181.795 130.173V153.624C181.795 156.718 179.301 159.228 176.226 159.228C173.151 159.228 170.657 156.718 170.657 153.624V132.189L152.324 121.526C150.611 120.57 149.452 118.733 149.452 116.623C149.452 113.529 151.946 111.019 155.021 111.019C156.069 111.019 157.05 111.311 157.886 111.819L177.963 123.497Z" fill="url(#paint0_linear_10_2)"/>
<path d="M72.4436 184.969C72.6972 184.969 72.9191 185.06 73.1093 185.242C73.2995 185.425 73.3946 185.653 73.3946 185.926V188.77C73.3946 189.025 73.2995 189.248 73.1093 189.44C72.9191 189.631 72.6972 189.727 72.4436 189.727H69.971C69.6993 189.727 69.4729 189.631 69.2917 189.44C69.1106 189.248 69.02 189.025 69.02 188.77V185.926C69.02 185.653 69.1106 185.425 69.2917 185.242C69.4729 185.06 69.6993 184.969 69.971 184.969H72.4436V184.969ZM89.0999 170.259C90.2049 170.678 91.2012 171.353 92.0888 172.282C93.9908 174.214 94.9418 176.68 94.9418 179.678C94.9418 182.677 93.9908 185.151 92.0888 187.102C91.2012 188.031 90.2049 188.706 89.0999 189.125C87.9587 189.599 86.7903 189.836 85.5947 189.836H77.9051C77.6515 189.836 77.4296 189.74 77.2394 189.549C77.0492 189.357 76.9541 189.134 76.9541 188.879V186.91C76.9541 186.637 77.0492 186.405 77.2394 186.213C77.4296 186.022 77.6515 185.926 77.9051 185.926H85.5132C87.1254 185.926 88.4342 185.334 89.4395 184.149C90.4449 182.964 90.9476 181.478 90.9476 179.692C90.9476 177.906 90.4449 176.42 89.4395 175.235C88.4342 174.05 87.1254 173.458 85.5132 173.458H77.9051C77.6515 173.458 77.4296 173.362 77.2394 173.171C77.0492 172.979 76.9541 172.747 76.9541 172.474V170.505C76.9541 170.25 77.0492 170.026 77.2394 169.835C77.4296 169.644 77.6515 169.548 77.9051 169.548H85.5947C86.7903 169.548 87.9587 169.785 89.0999 170.259V170.259ZM112.603 185.899C112.875 185.899 113.102 185.994 113.283 186.186C113.464 186.377 113.554 186.61 113.554 186.883V188.879C113.554 189.134 113.464 189.357 113.283 189.549C113.102 189.74 112.875 189.836 112.603 189.836H99.1806C98.927 189.836 98.7051 189.74 98.5149 189.549C98.3247 189.357 98.2296 189.134 98.2296 188.879V186.883C98.2296 186.61 98.3247 186.377 98.5149 186.186C98.7051 185.994 98.927 185.899 99.1806 185.899H112.603ZM99.1806 181.661C98.927 181.661 98.7051 181.565 98.5149 181.374C98.3247 181.182 98.2296 180.959 98.2296 180.704V178.653C98.2296 178.398 98.3247 178.174 98.5149 177.983C98.7051 177.792 98.927 177.696 99.1806 177.696H111.381C111.652 177.696 111.883 177.792 112.074 177.983C112.264 178.174 112.359 178.398 112.359 178.653V180.704C112.359 180.959 112.264 181.182 112.074 181.374C111.883 181.565 111.652 181.661 111.381 181.661H99.1806ZM112.603 169.548C112.875 169.548 113.102 169.644 113.283 169.835C113.464 170.026 113.554 170.25 113.554 170.505V172.501C113.554 172.774 113.464 173.007 113.283 173.198C113.102 173.39 112.875 173.485 112.603 173.485H99.1806C98.927 173.485 98.7051 173.39 98.5149 173.198C98.3247 173.007 98.2296 172.774 98.2296 172.501V170.505C98.2296 170.25 98.3247 170.026 98.5149 169.835C98.7051 169.644 98.927 169.548 99.1806 169.548H112.603ZM133.797 169.985C133.997 170.259 134.033 170.56 133.906 170.888L126.461 189.398C126.389 189.581 126.271 189.727 126.108 189.836C125.945 189.945 125.764 190 125.564 190H123.173C122.974 190 122.793 189.945 122.63 189.836C122.467 189.727 122.349 189.581 122.277 189.398L114.831 170.888C114.687 170.578 114.714 170.277 114.913 169.985C115.112 169.694 115.375 169.548 115.701 169.548H124.776C125.03 169.548 125.252 169.644 125.442 169.835C125.632 170.026 125.727 170.259 125.727 170.532V172.528C125.727 172.802 125.632 173.034 125.442 173.226C125.252 173.417 125.03 173.513 124.776 173.513H120.211L124.369 184.039L129.83 170.15C129.903 169.967 130.02 169.821 130.184 169.712C130.347 169.603 130.528 169.548 130.727 169.548H133.009C133.172 169.548 133.326 169.589 133.471 169.671C133.616 169.753 133.725 169.858 133.797 169.985V169.985Z" fill="url(#paint1_linear_10_2)"/>
</g>
<defs>
<linearGradient id="paint0_linear_10_2" x1="0" y1="0" x2="203" y2="0" gradientUnits="userSpaceOnUse">
<stop offset="1" stop-color="white"/>
<stop offset="1" stop-color="#00AEEF"/>
</linearGradient>
<linearGradient id="paint1_linear_10_2" x1="69.02" y1="169.548" x2="133.98" y2="169.548" gradientUnits="userSpaceOnUse">
<stop offset="0.9999" stop-color="white"/>
<stop offset="1" stop-color="#FF00D4"/>
</linearGradient>
<clipPath id="clip0_10_2">
<rect width="203" height="190" fill="white"/>
</clipPath>
</defs>
</svg>
